<?xml version="1.0" standalone="no"?>
<!DOCTYPE svg PUBLIC "-//W3C//DTD SVG 20010904//EN"
 "http://www.w3.org/TR/2001/REC-SVG-20010904/DTD/svg10.dtd">
<svg version="1.0" xmlns="http://www.w3.org/2000/svg"
 width="513.000000pt" height="513.000000pt" viewBox="0 0 513.000000 513.000000"
 preserveAspectRatio="xMidYMid meet">
<metadata>
Created by potrace 1.11, written by Peter Selinger 2001-2013
</metadata>
<g transform="translate(0.000000,513.000000) scale(0.100000,-0.100000)"
fill="#000000" stroke="none">
<path d="M722 4193 c57 -76 138 -185 181 -243 43 -58 86 -116 95 -128 9 -13
51 -70 93 -125 42 -56 141 -190 220 -297 80 -107 229 -307 331 -445 102 -137
224 -302 271 -365 l85 -114 -22 -31 c-11 -16 -23 -32 -26 -35 -3 -3 -30 -39
-60 -80 -30 -41 -58 -79 -63 -85 -4 -5 -31 -42 -60 -80 -83 -112 -470 -632
-617 -831 -74 -100 -143 -192 -153 -205 -9 -13 -83 -112 -163 -219 -156 -208
-204 -276 -204 -284 0 -3 252 -5 559 -5 414 0 563 3 574 12 9 7 91 113 183
237 92 124 220 297 286 385 65 88 166 223 223 300 57 77 108 140 113 140 6 0
77 -90 158 -200 82 -110 152 -204 157 -210 4 -5 58 -78 120 -161 62 -83 171
-231 242 -327 l130 -176 568 2 c312 0 567 2 567 4 0 2 -79 111 -176 241 -314
421 -501 673 -653 877 -597 805 -543 726 -525 753 9 13 142 194 297 402 155
208 338 454 407 547 69 92 243 327 387 521 145 194 263 355 263 357 0 3 -255
5 -568 5 l-567 0 -75 -102 c-41 -56 -149 -201 -240 -323 -91 -122 -237 -319
-325 -438 -88 -119 -163 -216 -166 -217 -3 0 -62 75 -130 167 -68 92 -153 206
-189 254 -36 48 -161 216 -278 373 l-212 286 -570 0 -570 0 102 -137z"/>
</g>
</svg>
